

<svg viewBox="-2.4 -2.4 28.80 28.80" fill="none" xmlns="http://www.w3.org/2000/svg" stroke="#ffffff">
    <g id="SVGRepo_bgCarrier" stroke-width="0">
        <path transform="translate(-2.4, -2.4), scale(0.8999999999999999)"
            d="M16,26.872791275382042C18.864076453080436,26.74820150638188,21.482625101712028,25.53296747089676,23.596734146135947,23.596734146135947C25.824284925270046,21.55660378364009,27.398494543699716,18.98332818668587,27.87164071574807,16C28.44457093102746,12.387503563967723,28.76295913650485,8.38150520816226,26.460562872780955,5.5394371272190455C24.00229302529661,2.50495936248348,19.895075547989983,1.063682642487533,16.000000000000004,1.3456975768009833C12.321204571923714,1.6120531938407954,9.496877559504243,4.282149959595177,6.951920272579244,6.95192027257924C4.489297718690537,9.53531788802646,1.874400865902175,12.434331123753303,2.0307931527495384,15.999999999999998C2.1833650594296055,19.478566046992356,4.9645734982669225,22.14907305396933,7.712278481723937,24.287721518276058C10.086271876525641,26.135495336293154,12.994501818353005,27.003533010219137,16,26.872791275382042"
            fill="#7ed0ec" strokewidth="0"></path>
    </g>
    <g id="SVGRepo_tracerCarrier" stroke-linecap="round" stroke-linejoin="round" stroke="#0a0a0a"
        stroke-width="1.392"></g>
    <g id="SVGRepo_iconCarrier">
        <rect width="24" height="24" fill="white"></rect>
        <path fill-rule="evenodd" clip-rule="evenodd"
            d="M13 9C13 8.44772 12.5523 8 12 8C11.4477 8 11 8.44772 11 9V11H9C8.44772 11 8 11.4477 8 12C8 12.5523 8.44772 13 9 13H11V15C11 15.5523 11.4477 16 12 16C12.5523 16 13 15.5523 13 15V13H15C15.5523 13 16 12.5523 16 12C16 11.4477 15.5523 11 15 11H13V9ZM2 12C2 6.47715 6.47715 2 12 2C17.5228 2 22 6.47715 22 12C22 17.5228 17.5228 22 12 22C6.47715 22 2 17.5228 2 12Z"
            fill="#3c0085"></path>
    </g>
</svg>